<svg width="38" height="38" viewBox="0 0 38 38" fill="none" xmlns="http://www.w3.org/2000/svg">
<path d="M19.0003 0.666656C8.88033 0.666656 0.666992 8.87999 0.666992 19C0.666992 29.12 8.88033 37.3333 19.0003 37.3333C29.1203 37.3333 37.3337 29.12 37.3337 19C37.3337 8.87999 29.1203 0.666656 19.0003 0.666656ZM19.0003 6.16666C22.0437 6.16666 24.5003 8.62332 24.5003 11.6667C24.5003 14.71 22.0437 17.1667 19.0003 17.1667C15.957 17.1667 13.5003 14.71 13.5003 11.6667C13.5003 8.62332 15.957 6.16666 19.0003 6.16666ZM19.0003 32.2C14.417 32.2 10.3653 29.8533 8.00033 26.2967C8.05533 22.6483 15.3337 20.65 19.0003 20.65C22.6487 20.65 29.9453 22.6483 30.0003 26.2967C27.6353 29.8533 23.5837 32.2 19.0003 32.2Z" fill="white"/>
</svg>
