<svg width="37" height="37" viewBox="0 0 37 37" fill="none" xmlns="http://www.w3.org/2000/svg">
<path d="M18.3333 0C8.21334 0 0 8.21334 0 18.3333C0 28.4533 8.21334 36.6667 18.3333 36.6667C28.4533 36.6667 36.6667 28.4533 36.6667 18.3333C36.6667 8.21334 28.4533 0 18.3333 0ZM18.3333 5.5C21.3767 5.5 23.8333 7.95667 23.8333 11C23.8333 14.0433 21.3767 16.5 18.3333 16.5C15.29 16.5 12.8333 14.0433 12.8333 11C12.8333 7.95667 15.29 5.5 18.3333 5.5ZM18.3333 31.5333C13.75 31.5333 9.69833 29.1867 7.33333 25.63C7.38833 21.9817 14.6667 19.9833 18.3333 19.9833C21.9817 19.9833 29.2783 21.9817 29.3333 25.63C26.9683 29.1867 22.9167 31.5333 18.3333 31.5333Z" fill="#A4A4A4"/>
</svg>
