<svg width="60" height="63" viewBox="0 0 60 63" fill="none" xmlns="http://www.w3.org/2000/svg">
<path d="M30 0C13.44 0 0 13.44 0 30C0 46.56 13.44 60 30 60C46.56 60 60 46.56 60 30C60 13.44 46.56 0 30 0ZM30 9C34.98 9 39 13.02 39 18C39 22.98 34.98 27 30 27C25.02 27 21 22.98 21 18C21 13.02 25.02 9 30 9ZM30 51.6C22.5 51.6 15.87 47.76 12 41.94C12.09 35.97 24 32.7 30 32.7C35.97 32.7 47.91 35.97 48 41.94C44.13 47.76 37.5 51.6 30 51.6Z" fill="#A4A4A4"/>
<rect x="35" y="41" width="22" height="22" rx="11" fill="#C4C4C4"/>
<path d="M46 54.1333C47.1782 54.1333 48.1333 53.1782 48.1333 52C48.1333 50.8218 47.1782 49.8667 46 49.8667C44.8218 49.8667 43.8666 50.8218 43.8666 52C43.8666 53.1782 44.8218 54.1333 46 54.1333Z" fill="white"/>
<path d="M44 45.3333L42.78 46.6667H40.6666C39.9333 46.6667 39.3333 47.2667 39.3333 48V56C39.3333 56.7333 39.9333 57.3333 40.6666 57.3333H51.3333C52.0666 57.3333 52.6666 56.7333 52.6666 56V48C52.6666 47.2667 52.0666 46.6667 51.3333 46.6667H49.22L48 45.3333H44ZM46 55.3333C44.16 55.3333 42.6666 53.84 42.6666 52C42.6666 50.16 44.16 48.6667 46 48.6667C47.84 48.6667 49.3333 50.16 49.3333 52C49.3333 53.84 47.84 55.3333 46 55.3333Z" fill="white"/>
</svg>
